<svg xmlns="http://www.w3.org/2000/svg" width="36" height="36" viewBox="0 0 36 36" fill="none"><path d="M18 3.75C10.14 3.75 3.75 10.14 3.75 18C3.75 25.86 10.14 32.25 18 32.25C25.86 32.25 32.25 25.86 32.25 18C32.25 10.14 25.86 3.75 18 3.75ZM22.065 19.0649L17.565 23.5649C17.265 23.8499 16.89 24 16.5 24C16.11 24 15.735 23.8499 15.435 23.5649C14.85 22.9799 14.85 22.0201 15.435 21.4351L18.885 18L15.435 14.5649C14.85 13.9799 14.85 13.0201 15.435 12.4351C16.02 11.8501 16.98 11.8501 17.565 12.4351L22.065 16.9351C22.65 17.5201 22.65 18.4799 22.065 19.0649Z" fill="#EF4B7D"/></svg>