<svg width="1440" height="1732" viewBox="0 0 1440 1732" fill="none" xmlns="http://www.w3.org/2000/svg">
<path d="M-402 1731.24C-352.487 1606.28 -184.029 1619.82 -90.8518 1548.3C-28.4386 1500.41 0.614573 1421.53 50.286 1360.52C124.924 1268.81 259.424 1221.6 367.398 1269.67C421.207 1293.62 465.166 1338.27 521.767 1354.49C619.205 1382.41 670.006 1307.43 750.429 1274.86C827.301 1243.7 941.888 1259.48 1010.65 1305.15C1043.82 1327.17 1069.26 1365.51 1064.39 1405.04C1059.49 1444.57 1015.39 1477.93 978.667 1462.51C959.344 1454.38 946.067 1435 942.252 1414.38C938.436 1393.76 943.225 1372.21 952.449 1353.38C978.622 1299.84 1036.29 1269.48 1092.78 1250.56C1254.37 1196.46 1378.43 1126.92 1388.36 940.658C1393.2 849.816 1379.81 756.105 1407.92 669.596C1428.3 606.829 1470.56 551.421 1525.68 515.175C1595.99 468.921 1688.2 450.976 1738.29 383.319C1782.82 323.193 1781.18 239.588 1819.21 175.127C1872.15 85.4045 1995.2 40.9891 2086.52 1.94456" stroke="#EF4B7D" stroke-width="4" stroke-miterlimit="10"/>
</svg>
