<svg width="54" height="35" viewBox="0 0 54 35" fill="none" xmlns="http://www.w3.org/2000/svg">
<path d="M0.4 1.09599C1.85067 0.754659 3.38667 0.541326 5.008 0.455994C6.62933 0.285329 8.12267 0.199997 9.488 0.199997C10.8533 0.199997 12.2613 0.285329 13.712 0.455994C15.1627 0.541326 16.6133 0.754659 18.064 1.09599L26.512 33.864C25.0613 34.2053 23.6533 34.4187 22.288 34.504C21.008 34.5893 19.6853 34.632 18.32 34.632C16.9547 34.632 15.5467 34.5893 14.096 34.504C12.6453 34.4187 11.1947 34.2053 9.744 33.864L0.4 1.09599ZM27.536 1.09599C28.9867 0.754659 30.5227 0.541326 32.144 0.455994C33.7653 0.285329 35.2587 0.199997 36.624 0.199997C37.9893 0.199997 39.3973 0.285329 40.848 0.455994C42.2987 0.541326 43.7493 0.754659 45.2 1.09599L53.648 33.864C52.1973 34.2053 50.7893 34.4187 49.424 34.504C48.144 34.5893 46.8213 34.632 45.456 34.632C44.0907 34.632 42.6827 34.5893 41.232 34.504C39.7813 34.4187 38.3307 34.2053 36.88 33.864L27.536 1.09599Z" fill="#EF4B7D"/>
</svg>
