<svg width="1440" height="861" viewBox="0 0 1440 861" fill="none" xmlns="http://www.w3.org/2000/svg">
<rect width="1440" height="473" fill="#111111"/>
<rect y="473" width="1440" height="388" fill="#E34831"/>
<path d="M394.956 209.874V210H387.999V209.874L389.305 208.392V193.522H387.848L383.754 196.311H383.628V192.417H399.352L403.069 190.659H403.321V198.898H403.471C404.853 197.391 406.31 196.637 407.842 196.637C410.077 196.637 411.66 198.069 411.66 200.154V208.669L412.815 209.874V210H406.561V209.874L407.691 208.669V200.932C407.691 199.702 406.938 198.948 405.732 198.948C404.928 198.948 404.124 199.275 403.321 199.928V208.669L404.451 209.874V210H398.197V209.824L399.352 208.669V193.522H393.65V208.392L394.956 209.874ZM417.436 194.603C416.105 194.603 415.276 193.849 415.276 192.643C415.276 191.413 416.105 190.659 417.436 190.659C418.767 190.659 419.596 191.413 419.596 192.643C419.596 193.849 418.767 194.603 417.436 194.603ZM420.551 209.9V210H414.321V209.9L415.452 208.669V199.325L414.12 198.019V197.893L419.169 196.637H419.42V208.669L420.551 209.9ZM426.963 210.377C425.606 210.377 423.421 209.95 422.542 209.523V206.383H422.667L426.284 209.297C426.586 209.422 426.887 209.498 427.163 209.498C428.394 209.498 429.223 208.644 429.223 207.363C429.223 204.374 422.743 205.479 422.743 201.008C422.743 198.421 424.878 196.637 428.093 196.637C429.399 196.637 431.032 196.939 431.911 197.34V200.103H431.785L428.872 197.667C428.671 197.592 428.419 197.541 428.118 197.541C426.988 197.541 426.184 198.295 426.184 199.425C426.184 202.439 432.639 201.334 432.639 205.755C432.639 208.593 430.479 210.377 426.963 210.377ZM442.53 194.603C441.198 194.603 440.37 193.849 440.37 192.643C440.37 191.413 441.198 190.659 442.53 190.659C443.861 190.659 444.69 191.413 444.69 192.643C444.69 193.849 443.861 194.603 442.53 194.603ZM445.644 209.9V210H439.415V209.9L440.545 208.669V199.325L439.214 198.019V197.893L444.263 196.637H444.514V208.669L445.644 209.9ZM452.056 210.377C450.7 210.377 448.515 209.95 447.635 209.523V206.383H447.761L451.378 209.297C451.679 209.422 451.981 209.498 452.257 209.498C453.488 209.498 454.317 208.644 454.317 207.363C454.317 204.374 447.836 205.479 447.836 201.008C447.836 198.421 449.971 196.637 453.186 196.637C454.493 196.637 456.125 196.939 457.004 197.34V200.103H456.879L453.965 197.667C453.764 197.592 453.513 197.541 453.212 197.541C452.081 197.541 451.278 198.295 451.278 199.425C451.278 202.439 457.733 201.334 457.733 205.755C457.733 208.593 455.573 210.377 452.056 210.377ZM481.715 198.747L477.997 210H476.038L473.2 201.259L470.211 210H468.076L464.509 198.37L463.579 197.139V197.014H469.859V197.139L468.678 198.37L470.663 205.78L473.652 197.014H475.812L478.6 205.579L480.534 198.697L478.952 197.139V197.014H482.745V197.139L481.715 198.747ZM489.896 209.874V210H483.666V209.824L484.797 208.669V193.347L483.465 192.015V191.89L488.514 190.659H488.765V198.898H488.916C490.297 197.416 491.754 196.662 493.287 196.662C495.522 196.662 497.13 198.069 497.13 200.154V208.669L498.26 209.874V210H492.005V209.874L493.161 208.669V200.932C493.161 199.702 492.407 198.948 491.177 198.948C490.398 198.948 489.594 199.275 488.765 199.928V208.669L489.896 209.874ZM509.478 210.377C508.172 210.377 507.142 209.498 507.017 208.267H506.841C505.459 209.673 504.053 210.377 502.621 210.377C500.813 210.377 499.582 209.171 499.582 207.463C499.582 205.554 501.164 204.147 504.706 202.917L506.891 202.138V200.782C506.891 199.651 506.062 198.948 504.656 198.948C503.123 198.948 501.591 199.802 500.662 201.209L500.561 201.158C501.139 198.27 503.174 196.637 506.213 196.637C508.951 196.637 510.86 197.968 510.86 199.902V207.89L512.191 208.593V208.719C511.689 209.724 510.609 210.377 509.478 210.377ZM503.174 206.207C503.174 207.388 504.003 208.242 505.183 208.242C505.861 208.242 506.439 207.965 506.891 207.438V203.042L505.711 203.494C504.028 204.147 503.174 205.052 503.174 206.207ZM517.619 210.377C516.087 210.377 514.655 209.724 514.253 208.041V198.446H512.595V198.32L517.769 194.226H518.222V197.014H521.437L521.236 198.446H518.222V206.433C518.222 207.739 518.975 208.292 519.98 208.292C520.658 208.292 521.236 208.091 521.763 207.664L521.864 207.764C521.135 209.372 519.503 210.377 517.619 210.377ZM533.417 215.024C529.95 215.024 527.464 213.542 527.464 211.507C527.464 211.13 527.564 210.804 527.765 210.578L529.599 209.9V209.824C528.82 209.397 528.318 208.644 528.318 207.614C528.318 206.182 529.322 205.077 530.854 204.675V204.625C529.121 203.947 528.016 202.59 528.016 200.957C528.016 198.521 530.453 196.637 533.592 196.637C534.798 196.637 535.778 196.913 536.657 197.315L540.173 196.587H540.299V198.672H540.173L537.26 197.818L537.209 197.918C538.44 198.446 539.169 199.601 539.169 200.882C539.169 203.243 536.682 205.102 533.492 205.102C532.713 205.102 532.01 205.001 531.357 204.801C530.98 205.027 530.779 205.378 530.779 205.805C530.779 206.609 531.407 207.162 532.412 207.162H539.169C540.173 207.488 540.826 208.644 540.826 209.95C540.826 212.889 537.636 215.024 533.417 215.024ZM533.793 204.248C534.873 204.248 535.426 203.243 535.426 201.259C535.426 198.873 534.672 197.516 533.391 197.516C532.311 197.516 531.759 198.496 531.759 200.48C531.759 202.866 532.563 204.248 533.793 204.248ZM529.8 210.879C529.8 212.637 531.709 213.994 534.195 213.994C536.406 213.994 538.089 212.889 538.089 211.407C538.089 210.603 537.611 210.201 536.657 210.201H531.181C530.754 210.201 530.377 210.126 530 210C529.875 210.226 529.8 210.527 529.8 210.879ZM548.306 210.377C544.287 210.377 541.675 207.689 541.675 203.645C541.675 199.475 544.438 196.637 548.507 196.637C552.501 196.637 555.138 199.3 555.138 203.394C555.138 207.564 552.4 210.377 548.306 210.377ZM548.708 209.347C550.29 209.347 551.069 207.639 551.069 204.248C551.069 200.154 549.914 197.667 548.105 197.667C546.523 197.667 545.744 199.375 545.744 202.766C545.744 206.81 546.9 209.347 548.708 209.347ZM563.294 210.377C559.275 210.377 556.662 207.689 556.662 203.645C556.662 199.475 559.425 196.637 563.495 196.637C567.488 196.637 570.126 199.3 570.126 203.394C570.126 207.564 567.388 210.377 563.294 210.377ZM563.696 209.347C565.278 209.347 566.057 207.639 566.057 204.248C566.057 200.154 564.901 197.667 563.093 197.667C561.51 197.667 560.732 199.375 560.732 202.766C560.732 206.81 561.887 209.347 563.696 209.347ZM571.65 204.122C571.65 199.827 574.664 196.637 578.633 196.637C579.512 196.637 580.316 196.813 580.718 196.989V193.372L579.361 192.015V191.915L584.435 190.659H584.686V207.965L585.892 209.246V209.372L581.094 210.377L580.768 208.242H580.617C579.311 209.774 578.231 210.377 576.824 210.377C573.81 210.377 571.65 207.739 571.65 204.122ZM575.468 202.389C575.468 205.604 577.05 207.991 579.261 207.991C579.889 207.991 580.391 207.739 580.718 207.363V198.245C580.316 197.918 579.663 197.692 578.884 197.692C576.799 197.692 575.468 199.475 575.468 202.389ZM389.681 235.377C386.165 235.377 383.779 232.739 383.779 228.871C383.779 224.601 386.617 221.637 390.711 221.637C391.917 221.637 393.248 221.888 394.077 222.29V225.782H393.926L390.234 222.742C390.033 222.692 389.857 222.667 389.707 222.667C388.225 222.667 387.019 224.727 387.019 227.163C387.019 230.353 388.978 232.639 391.691 232.639C393.022 232.639 394.027 232.111 394.73 231.082L394.856 231.157C394.278 233.794 392.419 235.377 389.681 235.377ZM402.276 234.874V235H396.047V234.874L397.177 233.618V218.347L395.846 217.015V216.915L400.895 215.659H401.146V233.618L402.276 234.874ZM407.256 219.603C405.925 219.603 405.096 218.849 405.096 217.643C405.096 216.413 405.925 215.659 407.256 215.659C408.588 215.659 409.416 216.413 409.416 217.643C409.416 218.849 408.588 219.603 407.256 219.603ZM410.371 234.9V235H404.142V234.9L405.272 233.669V224.325L403.941 223.019V222.893L408.989 221.637H409.241V233.669L410.371 234.9ZM426.504 234.874V235H420.249V234.874L421.379 233.593V225.932C421.379 224.651 420.751 223.948 419.571 223.948C418.842 223.948 418.089 224.275 417.335 224.928V233.669L418.466 234.874V235H412.236V234.874L413.367 233.669V224.325L412.035 222.994V222.868L416.783 221.637H417.034L417.21 223.998H417.386C418.742 222.416 420.174 221.637 421.681 221.637C423.464 221.637 424.77 222.566 425.197 224.048H425.348C426.755 222.441 428.212 221.637 429.694 221.637C431.879 221.637 433.386 223.069 433.386 225.154V233.669L434.516 234.874V235H428.262V234.874L429.417 233.593V225.932C429.417 224.702 428.714 223.948 427.584 223.948C426.88 223.948 426.127 224.275 425.348 224.928V225.154V233.669L426.504 234.874ZM445.775 235.377C444.469 235.377 443.439 234.498 443.314 233.267H443.138C441.756 234.673 440.35 235.377 438.918 235.377C437.109 235.377 435.879 234.171 435.879 232.463C435.879 230.554 437.461 229.147 441.003 227.917L443.188 227.138V225.782C443.188 224.651 442.359 223.948 440.953 223.948C439.42 223.948 437.888 224.802 436.959 226.209L436.858 226.158C437.436 223.27 439.471 221.637 442.51 221.637C445.248 221.637 447.157 222.968 447.157 224.902V232.89L448.488 233.593V233.719C447.986 234.724 446.906 235.377 445.775 235.377ZM439.471 231.207C439.471 232.388 440.299 233.242 441.48 233.242C442.158 233.242 442.736 232.965 443.188 232.438V228.042L442.008 228.494C440.325 229.147 439.471 230.052 439.471 231.207ZM453.916 235.377C452.384 235.377 450.952 234.724 450.55 233.041V223.446H448.892V223.32L454.066 219.226H454.519V222.014H457.734L457.533 223.446H454.519V231.433C454.519 232.739 455.272 233.292 456.277 233.292C456.955 233.292 457.533 233.091 458.06 232.664L458.161 232.764C457.432 234.372 455.8 235.377 453.916 235.377ZM465.415 235.377C461.673 235.377 459.035 232.714 459.035 228.72C459.035 224.626 461.798 221.637 465.541 221.637C468.655 221.637 470.539 223.596 471.192 227.515H462.3C462.577 230.655 464.335 232.639 467.023 232.639C468.806 232.639 470.213 231.835 471.268 230.202L471.393 230.278C470.816 233.468 468.605 235.377 465.415 235.377ZM464.762 222.642C463.154 222.642 462.275 224.023 462.275 226.611H467.5C466.998 223.797 466.194 222.642 464.762 222.642ZM484.082 234.874V235H477.853V234.874L478.983 233.618V218.347L477.652 217.015V216.915L482.701 215.659H482.952V233.618L484.082 234.874ZM492.177 235.377C488.434 235.377 485.797 232.714 485.797 228.72C485.797 224.626 488.56 221.637 492.302 221.637C495.417 221.637 497.301 223.596 497.954 227.515H489.062C489.338 230.655 491.097 232.639 493.784 232.639C495.568 232.639 496.974 231.835 498.029 230.202L498.155 230.278C497.577 233.468 495.367 235.377 492.177 235.377ZM491.524 222.642C489.916 222.642 489.037 224.023 489.037 226.611H494.262C493.759 223.797 492.955 222.642 491.524 222.642ZM509.307 235.377C508 235.377 506.971 234.498 506.845 233.267H506.669C505.288 234.673 503.881 235.377 502.449 235.377C500.641 235.377 499.41 234.171 499.41 232.463C499.41 230.554 500.993 229.147 504.534 227.917L506.719 227.138V225.782C506.719 224.651 505.891 223.948 504.484 223.948C502.952 223.948 501.42 224.802 500.49 226.209L500.39 226.158C500.967 223.27 503.002 221.637 506.041 221.637C508.779 221.637 510.688 222.968 510.688 224.902V232.89L512.019 233.593V233.719C511.517 234.724 510.437 235.377 509.307 235.377ZM503.002 231.207C503.002 232.388 503.831 233.242 505.011 233.242C505.69 233.242 506.267 232.965 506.719 232.438V228.042L505.539 228.494C503.856 229.147 503.002 230.052 503.002 231.207ZM512.951 229.122C512.951 224.827 515.965 221.637 519.934 221.637C520.813 221.637 521.617 221.813 522.019 221.989V218.372L520.662 217.015V216.915L525.736 215.659H525.987V232.965L527.193 234.246V234.372L522.395 235.377L522.069 233.242H521.918C520.612 234.774 519.532 235.377 518.125 235.377C515.111 235.377 512.951 232.739 512.951 229.122ZM516.769 227.389C516.769 230.604 518.351 232.991 520.562 232.991C521.19 232.991 521.692 232.739 522.019 232.363V223.245C521.617 222.918 520.964 222.692 520.185 222.692C518.1 222.692 516.769 224.475 516.769 227.389ZM535.054 235.377C531.312 235.377 528.674 232.714 528.674 228.72C528.674 224.626 531.437 221.637 535.18 221.637C538.295 221.637 540.178 223.596 540.832 227.515H531.94C532.216 230.655 533.974 232.639 536.662 232.639C538.445 232.639 539.852 231.835 540.907 230.202L541.032 230.278C540.455 233.468 538.244 235.377 535.054 235.377ZM534.401 222.642C532.794 222.642 531.915 224.023 531.915 226.611H537.139C536.637 223.797 535.833 222.642 534.401 222.642ZM542.463 234.874L543.594 233.669V224.325L542.262 222.994V222.893L547.01 221.637H547.261L547.437 224.325H547.588C548.668 222.416 549.622 221.637 550.828 221.637C551.33 221.637 551.707 221.763 551.983 221.989V226.058H551.858L549.321 224.35C549.22 224.325 549.17 224.325 549.095 224.325C548.567 224.325 547.839 224.827 547.562 225.43V233.669L548.894 234.874V235H542.463V234.874ZM557.607 235.377C556.25 235.377 554.065 234.95 553.186 234.523V231.383H553.311L556.928 234.297C557.23 234.422 557.531 234.498 557.807 234.498C559.038 234.498 559.867 233.644 559.867 232.363C559.867 229.374 553.387 230.479 553.387 226.008C553.387 223.421 555.522 221.637 558.737 221.637C560.043 221.637 561.676 221.939 562.555 222.34V225.103H562.429L559.516 222.667C559.315 222.592 559.063 222.541 558.762 222.541C557.632 222.541 556.828 223.295 556.828 224.425C556.828 227.439 563.283 226.334 563.283 230.755C563.283 233.593 561.123 235.377 557.607 235.377ZM571.26 234.874V235H565.031V234.824L566.161 233.669V218.347L564.83 217.015V216.89L569.878 215.659H570.13V223.898H570.28C571.662 222.416 573.119 221.662 574.651 221.662C576.886 221.662 578.494 223.069 578.494 225.154V233.669L579.624 234.874V235H573.37V234.874L574.525 233.669V225.932C574.525 224.702 573.772 223.948 572.541 223.948C571.762 223.948 570.958 224.275 570.13 224.928V233.669L571.26 234.874ZM584.237 219.603C582.905 219.603 582.076 218.849 582.076 217.643C582.076 216.413 582.905 215.659 584.237 215.659C585.568 215.659 586.397 216.413 586.397 217.643C586.397 218.849 585.568 219.603 584.237 219.603ZM587.351 234.9V235H581.122V234.9L582.252 233.669V224.325L580.921 223.019V222.893L585.97 221.637H586.221V233.669L587.351 234.9ZM603.383 227.917C603.383 232.212 600.369 235.377 596.35 235.377C595.521 235.377 594.717 235.251 594.316 235.05V238.692L595.823 239.898V240.024H589.217V239.898L590.347 238.692V224.3L589.016 222.994V222.868L593.838 221.637H594.064L594.265 223.797H594.416C595.722 222.215 596.802 221.637 598.209 221.637C601.223 221.637 603.383 224.275 603.383 227.917ZM599.565 229.65C599.565 226.41 597.958 224.048 595.747 224.048C595.119 224.048 594.642 224.249 594.316 224.676V233.769C594.692 234.096 595.371 234.322 596.099 234.322C598.234 234.322 599.565 232.564 599.565 229.65ZM390.159 259.874V260H383.929V259.874L385.06 258.618V243.347L383.728 242.015V241.915L388.777 240.659H389.028V258.618L390.159 259.874ZM398.505 260.377C394.486 260.377 391.873 257.689 391.873 253.645C391.873 249.475 394.636 246.637 398.706 246.637C402.699 246.637 405.337 249.3 405.337 253.394C405.337 257.564 402.599 260.377 398.505 260.377ZM398.906 259.347C400.489 259.347 401.268 257.639 401.268 254.248C401.268 250.154 400.112 247.667 398.304 247.667C396.721 247.667 395.943 249.375 395.943 252.766C395.943 256.81 397.098 259.347 398.906 259.347ZM413.492 260.377C409.473 260.377 406.861 257.689 406.861 253.645C406.861 249.475 409.624 246.637 413.693 246.637C417.687 246.637 420.324 249.3 420.324 253.394C420.324 257.564 417.586 260.377 413.492 260.377ZM413.894 259.347C415.476 259.347 416.255 257.639 416.255 254.248C416.255 250.154 415.1 247.667 413.291 247.667C411.709 247.667 410.93 249.375 410.93 252.766C410.93 256.81 412.085 259.347 413.894 259.347ZM428.228 259.874V260H421.999V259.874L423.129 258.618V243.347L421.798 242.015V241.915L426.847 240.659H427.098V253.268L432.021 248.747L430.916 247.139V247.014H435.588V247.139L430.74 251.359L436.543 259.874V260H430.338V259.874L431.117 258.669L428.002 253.72L427.098 254.549V258.669L428.228 259.874ZM442.122 260.377C440.765 260.377 438.58 259.95 437.701 259.523V256.383H437.827L441.444 259.297C441.745 259.422 442.046 259.498 442.323 259.498C443.553 259.498 444.382 258.644 444.382 257.363C444.382 254.374 437.902 255.479 437.902 251.008C437.902 248.421 440.037 246.637 443.252 246.637C444.558 246.637 446.191 246.939 447.07 247.34V250.103H446.944L444.031 247.667C443.83 247.592 443.579 247.541 443.277 247.541C442.147 247.541 441.343 248.295 441.343 249.425C441.343 252.439 447.798 251.334 447.798 255.755C447.798 258.593 445.638 260.377 442.122 260.377ZM460.804 259.874V260H454.574V259.874L455.705 258.618V243.347L454.373 242.015V241.915L459.422 240.659H459.673V258.618L460.804 259.874ZM465.784 244.603C464.452 244.603 463.623 243.849 463.623 242.643C463.623 241.413 464.452 240.659 465.784 240.659C467.115 240.659 467.944 241.413 467.944 242.643C467.944 243.849 467.115 244.603 465.784 244.603ZM468.898 259.9V260H462.669V259.9L463.799 258.669V249.325L462.468 248.019V247.893L467.517 246.637H467.768V258.669L468.898 259.9ZM476.993 259.874V260H470.764V259.874L471.894 258.618V243.347L470.563 242.015V241.915L475.612 240.659H475.863V253.268L480.786 248.747L479.681 247.139V247.014H484.353V247.139L479.505 251.359L485.307 259.874V260H479.103V259.874L479.882 258.669L476.767 253.72L475.863 254.549V258.669L476.993 259.874ZM491.735 260.377C487.993 260.377 485.355 257.714 485.355 253.72C485.355 249.626 488.118 246.637 491.861 246.637C494.976 246.637 496.859 248.596 497.512 252.515H488.621C488.897 255.655 490.655 257.639 493.343 257.639C495.126 257.639 496.533 256.835 497.588 255.202L497.713 255.278C497.136 258.468 494.925 260.377 491.735 260.377ZM491.082 247.642C489.475 247.642 488.595 249.023 488.595 251.611H493.82C493.318 248.797 492.514 247.642 491.082 247.642ZM501.807 250.706C500.476 250.706 499.571 249.852 499.571 248.672C499.571 247.491 500.476 246.662 501.807 246.662C503.188 246.662 504.042 247.491 504.042 248.672C504.042 249.852 503.188 250.706 501.807 250.706ZM501.807 260.377C500.476 260.377 499.571 259.523 499.571 258.342C499.571 257.162 500.476 256.333 501.807 256.333C503.188 256.333 504.042 257.162 504.042 258.342C504.042 259.523 503.188 260.377 501.807 260.377Z" fill="#E34831"/>
<g clip-path="url(#clip0_140_382)">
<path d="M852.604 183H828V463.251H852.604V183Z" fill="#E34831"/>
<path d="M884.585 196.191H859.981V462.962H884.585V196.191Z" fill="#E34831"/>
<path d="M916.566 226.591H891.962V462.978H916.566V226.591Z" fill="#E34831"/>
<path d="M948.547 282.796H923.942V463.058H948.547V282.796Z" fill="#E34831"/>
<path d="M980.511 329.729H955.907V463.107H980.511V329.729Z" fill="#E34831"/>
<path d="M1012.49 379.186H987.888V463.701H1012.49V379.186Z" fill="#E34831"/>
<path d="M1043.97 411.594H1020.37V463.09H1043.97V411.594Z" fill="#E34831"/>
<path d="M1076.45 433.269H1051.85V462.978H1076.45V433.269Z" fill="#E34831"/>
<path d="M1108.02 440.307H1083.41V462.994H1108.02V440.307Z" fill="#E34831"/>
<path d="M852.605 480.733H828V760.984H852.605V480.733Z" fill="#111111"/>
<path d="M884.586 481.038H859.981V747.808H884.586V481.038Z" fill="#111111"/>
<path d="M916.566 481.006H891.962V717.392H916.566V481.006Z" fill="#111111"/>
<path d="M948.547 480.942H923.942V661.204H948.547V480.942Z" fill="#111111"/>
<path d="M980.511 480.877H955.907V614.254H980.511V480.877Z" fill="#111111"/>
<path d="M1012.49 480.299H987.888V564.814H1012.49V480.299Z" fill="#111111"/>
<path d="M1043.97 480.893H1020.37V532.39H1043.97V480.893Z" fill="#111111"/>
<path d="M1076.45 481.006H1051.85V510.715H1076.45V481.006Z" fill="#111111"/>
<path d="M1108.02 481.006H1083.41V503.388H1108.02V481.006Z" fill="#111111"/>
</g>
<path d="M443.905 459.5V460H416.105V459.5L421.305 453.6V396.4L416.105 390.5V390H461.305C470.905 391.8 477.505 399.2 477.505 407.9C477.505 416.2 471.705 422.3 461.805 424.2L479.305 453.9L485.605 459.5V460H462.505L445.305 426.6H438.705V453.6L443.905 459.5ZM440.605 393.1H438.705V422.6H444.405C454.705 422.6 460.405 418 460.405 409.5C460.405 399.6 452.705 393.1 440.605 393.1ZM511.59 461.5C496.69 461.5 486.19 450.9 486.19 435C486.19 418.7 497.19 406.8 512.09 406.8C524.49 406.8 531.99 414.6 534.59 430.2H499.19C500.29 442.7 507.29 450.6 517.99 450.6C525.09 450.6 530.69 447.4 534.89 440.9L535.39 441.2C533.09 453.9 524.29 461.5 511.59 461.5ZM508.99 410.8C502.59 410.8 499.09 416.3 499.09 426.6H519.89C517.89 415.4 514.69 410.8 508.99 410.8ZM540.487 436.6C540.487 419.5 552.487 406.8 568.287 406.8C571.787 406.8 574.987 407.5 576.587 408.2V393.8L571.187 388.4V388L591.387 383H592.387V451.9L597.187 457V457.5L578.087 461.5L576.787 453H576.187C570.987 459.1 566.687 461.5 561.087 461.5C549.087 461.5 540.487 451 540.487 436.6ZM555.687 429.7C555.687 442.5 561.987 452 570.787 452C573.287 452 575.287 451 576.587 449.5V413.2C574.987 411.9 572.387 411 569.287 411C560.987 411 555.687 418.1 555.687 429.7ZM621.684 461.5C617.384 461.5 613.784 460.2 610.984 457.6C608.284 454.9 606.884 451.6 606.884 447.5V417.5L601.584 412.2V411.7L621.684 406.8H622.684V444.4C622.684 449.3 625.484 452.3 630.184 452.3C633.184 452.3 636.284 451 639.584 448.4V417.6L634.284 412.3V411.8L654.384 406.8H655.384V451.9L660.284 456.9V457.4L641.484 461.4L640.084 452.1H639.384C633.984 458.4 628.084 461.5 621.684 461.5ZM690.061 461.5C676.061 461.5 666.561 451 666.561 435.6C666.561 418.6 677.861 406.8 694.161 406.8C698.961 406.8 704.261 407.8 707.561 409.4V423.3H706.961L692.261 411.2C691.461 411 690.761 410.9 690.161 410.9C684.261 410.9 679.461 419.1 679.461 428.8C679.461 441.5 687.261 450.6 698.061 450.6C703.361 450.6 707.361 448.5 710.161 444.4L710.661 444.7C708.361 455.2 700.961 461.5 690.061 461.5ZM740.203 461.5C725.303 461.5 714.803 450.9 714.803 435C714.803 418.7 725.803 406.8 740.703 406.8C753.103 406.8 760.603 414.6 763.203 430.2H727.803C728.903 442.7 735.903 450.6 746.603 450.6C753.703 450.6 759.303 447.4 763.503 440.9L764.003 441.2C761.703 453.9 752.903 461.5 740.203 461.5ZM737.603 410.8C731.203 410.8 727.703 416.3 727.703 426.6H748.503C746.503 415.4 743.303 410.8 737.603 410.8Z" fill="#E34831"/>
<path d="M399.413 553.5C386.413 553.5 376.913 544.9 376.913 532.7C376.913 522.6 383.413 515.3 396.313 510.8L394.713 509.6C389.713 506.1 387.213 501.9 387.213 497.2C387.213 487.7 397.413 480.5 410.513 480.5C423.113 480.5 432.413 487 432.413 495.5C432.413 498.4 431.513 500.9 429.713 502.9L415.113 507.3C420.313 512 426.213 517.7 431.813 524C434.613 519.7 437.713 514.7 439.413 511.8L436.312 506V505.5H456.113V506L448.513 511.8C444.813 515.4 438.513 522.9 434.713 527.3C439.613 533 444.213 539.4 447.913 545.7L455.013 551.5V552H432.213C430.213 548 427.613 543.9 424.713 539.9C417.213 549 408.813 553.5 399.413 553.5ZM408.313 501.4C409.813 502.6 411.313 503.8 412.913 505.3C416.713 502.7 418.613 499.3 418.613 495C418.613 489.1 414.913 485 409.613 485C405.213 485 402.213 487.8 402.213 492.1C402.213 495.2 403.913 497.7 408.313 501.4ZM392.713 526.4C392.713 535.7 399.512 542.8 408.313 542.8C413.213 542.8 417.713 540.5 421.813 536C414.913 527.2 406.613 519 399.413 513.3C394.913 516.6 392.713 521 392.713 526.4ZM508.261 551.5V552H480.461V551.5L485.661 545.6V488.4L480.461 482.5V482H508.261V482.5L503.061 488.4V545.6L508.261 551.5ZM536.777 511.9V546.7L541.277 551.5V552H516.477V551.5L520.977 546.7V509.5L515.677 504.2V503.7L534.577 498.8H535.577L536.277 508.2H536.977C542.477 501.9 548.477 498.8 554.977 498.8C563.877 498.8 570.077 504.5 570.077 512.8V546.7L574.577 551.5V552H549.677V551.5L554.277 546.4V515.9C554.277 511 551.277 508 546.477 508C543.377 508 540.077 509.3 536.777 511.9ZM575.277 500.3H600.877V500.8L596.077 505.7L608.377 538L619.277 507.2L612.977 500.8V500.3H628.277V500.8L623.977 507.2L606.177 552L604.877 551.1L604.577 552H597.477L578.977 505.7L575.277 500.8V500.3ZM653.973 553.5C639.073 553.5 628.573 542.9 628.573 527C628.573 510.7 639.573 498.8 654.473 498.8C666.873 498.8 674.373 506.6 676.973 522.2H641.573C642.673 534.7 649.673 542.6 660.373 542.6C667.473 542.6 673.073 539.4 677.273 532.9L677.773 533.2C675.473 545.9 666.673 553.5 653.973 553.5ZM651.373 502.8C644.973 502.8 641.473 508.3 641.473 518.6H662.273C660.273 507.4 657.073 502.8 651.373 502.8ZM701.57 553.5C696.17 553.5 687.47 551.8 683.97 550.1V537.6H684.47L698.87 549.2C700.07 549.7 701.27 550 702.37 550C707.27 550 710.57 546.6 710.57 541.5C710.57 529.6 684.77 534 684.77 516.2C684.77 505.9 693.27 498.8 706.07 498.8C711.27 498.8 717.77 500 721.27 501.6V512.6H720.77L709.17 502.9C708.37 502.6 707.37 502.4 706.17 502.4C701.67 502.4 698.47 505.4 698.47 509.9C698.47 521.9 724.17 517.5 724.17 535.1C724.17 546.4 715.57 553.5 701.57 553.5ZM748.426 553.5C742.326 553.5 736.626 550.9 735.026 544.2V506H728.426V505.5L749.026 489.2H750.826V500.3H763.626L762.826 506H750.826V537.8C750.826 543 753.826 545.2 757.826 545.2C760.526 545.2 762.826 544.4 764.926 542.7L765.326 543.1C762.426 549.5 755.926 553.5 748.426 553.5Z" fill="#111111"/>
<defs>
<clipPath id="clip0_140_382">
<rect width="280" height="578" fill="white" transform="translate(828 183)"/>
</clipPath>
</defs>
</svg>
